<?xml version="1.0" encoding="UTF-8"?>
<svg viewBox="0 0 193 182" version="1.1" xmlns="http://www.w3.org/2000/svg" xmlns:xlink="http://www.w3.org/1999/xlink">
    <g stroke="none" stroke-width="1" fill="none" fill-rule="evenodd">
        <g fill-rule="nonzero">
            <g>
                <path d="M192.374931,59.8025356 L154.668022,16.0041613 C154.37572,15.7121721 154.083419,15.420183 153.498816,15.1281938 L118.422621,0.236746526 C116.668812,-0.63922096 114.330399,1.11271401 114.330399,2.28067066 C112.576589,9.87238888 80.423411,9.87238888 78.6696013,2.28067066 C78.6696013,1.11271401 76.3311883,-0.347231798 74.5773786,0.236746526 L39.5011844,15.1281938 C39.2088828,15.420183 38.6242795,15.420183 38.3319779,16.0041613 L0.625069112,59.8025356 C-0.251835744,60.9704923 -0.251835744,62.7224272 0.91737073,63.8903839 L25.7630083,88.1254844 C27.2245164,89.293441 28.9783261,89.0014518 29.855231,88.1254844 L48.2702329,67.686243 C53.5316621,104.184888 48.8548362,126.668054 43.593407,168.130515 C43.593407,168.130515 43.593407,168.422504 43.593407,168.422504 C43.593407,186.525832 149.406593,186.525832 149.406593,168.422504 C149.406593,168.422504 149.406593,168.130515 149.406593,168.130515 C144.145164,126.960043 139.468338,104.184888 144.729767,67.686243 L163.144769,88.1254844 C164.313976,89.293441 166.067785,89.5854302 167.236992,88.1254844 L192.082629,63.8903839 C193.251836,62.7224272 193.251836,60.9704923 192.374931,59.8025356 Z"
                    fill="#000"></path>
                <path d="M165.19088,81.7017228 L145.606672,60.0945248 C146.483577,54.5467307 147.652783,49.2909258 149.114291,43.7431317 C149.406593,42.2831859 148.529688,40.5312509 147.06818,40.2392617 C145.606672,39.9472726 143.852862,40.8232401 143.560561,42.2831859 C130.991591,91.6293543 137.714528,124.916119 143.560561,168.422504 C141.514449,178.350135 51.4855507,178.350135 49.4394394,168.422504 C54.9931702,126.084075 62.008409,92.2133326 49.4394394,42.2831859 C49.1471378,40.8232401 47.3933281,39.6552834 45.93182,40.2392617 C44.4703119,40.5312509 43.3011054,42.2831859 43.8857087,43.7431317 C45.3472168,49.2909258 46.5164232,54.5467307 47.3933281,60.0945248 L27.8091196,81.7017228 L7.05570472,61.5544706 L42.4242006,20.6759879 L73.1158705,7.24448642 C77.7926964,32.9395327 114.915002,32.9395327 119.591828,7.24448642 L150.575799,20.3839987 L185.651994,61.2624814 L165.19088,81.7017228 Z"
                    fill="#fff"></path>
            </g>
        </g>
    </g>
</svg>
